<svg width="1600" height="1000" viewBox="0 0 1600 1000" fill="none" xmlns="http://www.w3.org/2000/svg">
  <rect width="1600" height="1000" fill="#060606"/>
  <rect width="1600" height="1000" fill="url(#bgNoise)" opacity="0.22"/>
  <circle cx="905" cy="256" r="240" fill="url(#glow)" opacity="0.9"/>
  <circle cx="1330" cy="190" r="10" fill="#FF6A00" opacity="0.9"/>
  <circle cx="1260" cy="690" r="9" fill="#FF6A00" opacity="0.85"/>
  <circle cx="302" cy="814" r="8" fill="#FF6A00" opacity="0.8"/>
  <circle cx="1128" cy="522" r="7" fill="#FF6A00" opacity="0.75"/>
  <path d="M0 130H1600" stroke="#FF6A00" stroke-opacity="0.35"/>
  <rect x="1220" y="28" width="252" height="74" rx="37" fill="#FF6A00"/>
  <text x="1346" y="74" fill="white" font-family="Arial, Helvetica, sans-serif" font-size="28" font-weight="700" letter-spacing="4" text-anchor="middle">WHATSAPP</text>
  <g opacity="0.18">
    <text x="228" y="414" fill="white" font-family="Arial, Helvetica, sans-serif" font-size="146" font-weight="700" letter-spacing="4">LEANDRO HOLANDA</text>
  </g>
  <g>
    <circle cx="250" cy="58" r="26" fill="#111111" stroke="#FF6A00" stroke-width="5"/>
    <text x="250" y="69" fill="white" font-family="Arial, Helvetica, sans-serif" font-size="34" font-weight="700" text-anchor="middle">H</text>
  </g>
  <text x="302" y="56" fill="white" font-family="Arial, Helvetica, sans-serif" font-size="40" font-weight="700" letter-spacing="2">LEANDRO HOLANDA</text>
  <text x="304" y="93" fill="#CFCFCF" font-family="Arial, Helvetica, sans-serif" font-size="24" font-weight="500" letter-spacing="6">PERSONAL NUTRI</text>
  <g opacity="0.95">
    <path d="M1070 184C992 174 944 220 926 266C908 313 900 372 818 406C736 440 656 426 608 350C560 274 572 180 626 124C680 68 778 44 872 52C966 60 1068 112 1138 188C1109 188 1090 186 1070 184Z" fill="url(#shirtGlow)"/>
    <rect x="716" y="170" width="244" height="364" rx="110" fill="#F7F7F7"/>
    <rect x="764" y="510" width="148" height="132" rx="72" fill="#D6B098"/>
    <rect x="662" y="588" width="352" height="224" rx="110" fill="#F7F7F7"/>
    <rect x="642" y="628" width="144" height="54" rx="27" fill="#D6B098"/>
    <rect x="890" y="628" width="144" height="54" rx="27" fill="#D6B098"/>
    <circle cx="838" cy="154" r="72" fill="#D6B098"/>
    <path d="M776 160C776 118 805 82 845 82C887 82 918 112 918 154C918 180 910 202 896 220H798C784 202 776 182 776 160Z" fill="#121212"/>
    <path d="M804 220H893C878 244 860 258 846 258C832 258 817 245 804 220Z" fill="#A0725E"/>
    <circle cx="861" cy="378" r="26" fill="#FF6A00" opacity="0.88"/>
    <circle cx="861" cy="378" r="18" fill="#F4F4F4"/>
    <text x="861" y="388" fill="#111111" font-family="Arial, Helvetica, sans-serif" font-size="26" font-weight="700" text-anchor="middle">H</text>
  </g>
  <text x="600" y="520" fill="#FF6A00" font-family="Arial, Helvetica, sans-serif" font-size="112" font-weight="800" letter-spacing="2">PERSONAL</text>
  <rect x="530" y="560" width="554" height="122" rx="26" fill="#FF6A00"/>
  <text x="808" y="646" fill="white" font-family="Arial, Helvetica, sans-serif" font-size="92" font-weight="800" text-anchor="middle">NUTRICIONISTA</text>
  <text x="580" y="770" fill="white" font-family="Arial, Helvetica, sans-serif" font-size="102" font-weight="700">LEANDRO</text>
  <text x="580" y="874" fill="white" font-family="Arial, Helvetica, sans-serif" font-size="102" font-weight="700">HOLANDA</text>
  <text x="531" y="932" fill="#D9D9D9" font-family="Arial, Helvetica, sans-serif" font-size="32" font-weight="500">Transforme seu corpo. Transforme sua mente. Transforme sua vida.</text>
  <defs>
    <radialGradient id="glow" cx="0" cy="0" r="1" gradientUnits="userSpaceOnUse" gradientTransform="translate(905 256) rotate(90) scale(240)">
      <stop stop-color="#FF6A00"/>
      <stop offset="1" stop-color="#FF6A00" stop-opacity="0"/>
    </radialGradient>
    <radialGradient id="shirtGlow" cx="0" cy="0" r="1" gradientUnits="userSpaceOnUse" gradientTransform="translate(868 236) rotate(90) scale(210 280)">
      <stop stop-color="#FF6A00" stop-opacity="0.5"/>
      <stop offset="1" stop-color="#FF6A00" stop-opacity="0"/>
    </radialGradient>
    <pattern id="bgNoise" patternUnits="userSpaceOnUse" width="160" height="160">
      <rect width="160" height="160" fill="#080808"/>
      <circle cx="20" cy="30" r="2" fill="#141414"/>
      <circle cx="110" cy="18" r="2" fill="#151515"/>
      <circle cx="64" cy="118" r="2" fill="#161616"/>
      <circle cx="138" cy="104" r="2" fill="#141414"/>
    </pattern>
  </defs>
</svg>
